<svg width="18" height="19" viewBox="0 0 18 19" fill="none" xmlns="http://www.w3.org/2000/svg">
<path d="M9 5.11538C8.17845 5.11538 7.37534 5.37254 6.69225 5.85433C6.00915 6.33611 5.47674 7.0209 5.16235 7.82208C4.84795 8.62326 4.76569 9.50486 4.92597 10.3554C5.08625 11.2059 5.48186 11.9872 6.06279 12.6004C6.64371 13.2136 7.38386 13.6312 8.18962 13.8004C8.99539 13.9695 9.83059 13.8827 10.5896 13.5509C11.3486 13.219 11.9974 12.657 12.4538 11.936C12.9102 11.2149 13.1538 10.3672 13.1538 9.5C13.1527 8.3375 12.7147 7.22296 11.9359 6.40094C11.1572 5.57893 10.1013 5.11659 9 5.11538ZM9 12.4231C8.4523 12.4231 7.9169 12.2516 7.4615 11.9304C7.0061 11.6093 6.65116 11.1527 6.44156 10.6186C6.23197 10.0845 6.17713 9.49676 6.28398 8.92974C6.39083 8.36271 6.65457 7.84187 7.04186 7.43307C7.42914 7.02427 7.92257 6.74588 8.45975 6.63309C8.99693 6.5203 9.55373 6.57819 10.0597 6.79943C10.5657 7.02067 10.9982 7.39533 11.3025 7.87603C11.6068 8.35672 11.7692 8.92187 11.7692 9.5C11.7692 10.2752 11.4775 11.0187 10.9581 11.5669C10.4388 12.1151 9.73445 12.4231 9 12.4231ZM13.1538 0H4.84615C3.5613 0.00145078 2.32946 0.540857 1.42092 1.49986C0.512391 2.45887 0.00137443 3.75915 0 5.11538V13.8846C0.00137443 15.2409 0.512391 16.5411 1.42092 17.5001C2.32946 18.4591 3.5613 18.9985 4.84615 19H13.1538C14.4387 18.9985 15.6705 18.4591 16.5791 17.5001C17.4876 16.5411 17.9986 15.2409 18 13.8846V5.11538C17.9986 3.75915 17.4876 2.45887 16.5791 1.49986C15.6705 0.540857 14.4387 0.00145078 13.1538 0ZM16.6154 13.8846C16.6154 14.8537 16.2507 15.783 15.6015 16.4683C14.9524 17.1535 14.0719 17.5385 13.1538 17.5385H4.84615C3.9281 17.5385 3.04764 17.1535 2.39848 16.4683C1.74931 15.783 1.38462 14.8537 1.38462 13.8846V5.11538C1.38462 4.14632 1.74931 3.21695 2.39848 2.53173C3.04764 1.8465 3.9281 1.46154 4.84615 1.46154H13.1538C14.0719 1.46154 14.9524 1.8465 15.6015 2.53173C16.2507 3.21695 16.6154 4.14632 16.6154 5.11538V13.8846ZM14.5385 4.75C14.5385 4.9668 14.4776 5.17873 14.3634 5.35899C14.2493 5.53925 14.0872 5.67975 13.8974 5.76271C13.7076 5.84568 13.4988 5.86739 13.2974 5.82509C13.096 5.7828 12.9109 5.6784 12.7657 5.5251C12.6205 5.3718 12.5216 5.17648 12.4815 4.96385C12.4414 4.75122 12.462 4.53082 12.5406 4.33052C12.6192 4.13022 12.7523 3.95903 12.9231 3.83858C13.0938 3.71813 13.2946 3.65385 13.5 3.65385C13.7754 3.65385 14.0396 3.76933 14.2343 3.9749C14.4291 4.18047 14.5385 4.45928 14.5385 4.75Z" fill="white"/>
</svg>
