<svg width="90" height="17" viewBox="0 0 90 17" fill="none" xmlns="http://www.w3.org/2000/svg">
<path d="M35.6723 15.2024C35.2806 15.5335 34.658 15.8648 33.8043 16.1961C32.9509 16.5275 32.0205 16.6932 31.0132 16.6932C29.4041 16.6932 28.0049 16.3332 26.8157 15.613C25.6263 14.8929 24.7169 13.9242 24.0873 12.7073C23.4576 11.4901 23.1428 10.1541 23.1428 8.69938C23.1428 7.10043 23.4576 5.67448 24.0873 4.42144C24.7169 3.1685 25.5983 2.1928 26.7316 1.49422C27.8648 0.795437 29.1732 0.446045 30.6566 0.446045C31.5938 0.446045 32.4612 0.575801 33.2587 0.835103C34.0564 1.09419 34.7559 1.41827 35.3575 1.80732L34.1613 4.76703C33.0559 3.90283 31.9226 3.47074 30.7615 3.47074C29.9777 3.47074 29.243 3.69417 28.5574 4.14083C27.872 4.58727 27.3264 5.19576 26.9206 5.96628C26.5148 6.7368 26.3119 7.59023 26.3119 8.52638C26.3119 9.54902 26.5006 10.4457 26.8784 11.2164C27.2563 11.987 27.7951 12.5883 28.4947 13.0204C29.1942 13.4525 30.0127 13.6685 30.9501 13.6685C31.7056 13.6685 32.3842 13.5426 32.9857 13.2904C33.5875 13.0384 34.0632 12.7395 34.413 12.3937L35.6723 15.2024Z" fill="black"/>
<path d="M46.3551 13.409H41.234L39.9748 16.5202H36.9734L43.9415 -0.00756836H44.1092L51.0773 16.5202H47.5512L46.3551 13.409ZM45.3475 10.7734L43.8575 6.90601L42.3043 10.7734H45.3475Z" fill="black"/>
<path d="M58.0034 0.619141C59.8923 0.619141 61.3543 1.09808 62.3895 2.05595C63.4249 3.01362 63.9427 4.32057 63.9427 5.97691C63.9427 6.92782 63.7642 7.81734 63.4073 8.64546C63.0507 9.47368 62.47 10.1542 61.6656 10.687C60.861 11.2198 59.8222 11.4862 58.549 11.4862H56.3662V16.5203H53.323V0.619141H58.0034ZM58.5281 8.43996C59.1017 8.43996 59.5633 8.30683 59.9132 8.04035C60.263 7.77398 60.5148 7.46077 60.6687 7.10062C60.8225 6.74057 60.8995 6.39487 60.8995 6.06342C60.8995 5.50167 60.7385 4.95806 60.4166 4.4325C60.0949 3.90672 59.4723 3.64383 58.549 3.64383H56.3662V8.43996H58.5281Z" fill="black"/>
<path d="M77.2068 0.619141V3.64383H69.7144V7.03564H76.3464V10.0603H69.7144V13.4956H77.5007V16.5203H66.6711V0.619141H77.2068Z" fill="black"/>
<path d="M90.0094 0.619141V3.64383H86.2525V16.5203H83.2093V3.64383H79.5996V0.619141H90.0094Z" fill="black"/>
<mask id="mask0_0_1" style="mask-type:luminance" maskUnits="userSpaceOnUse" x="9" y="0" width="13" height="17">
<path d="M9.64502 0.155029H21.4768V16.5378H9.64502V0.155029Z" fill="white"/>
</mask>
<g mask="url(#mask0_0_1)">
<path d="M15.3403 16.4223C15.3467 16.4308 15.3535 16.4389 15.3608 16.4465C15.3681 16.4542 15.3758 16.4615 15.3839 16.4682C15.392 16.475 15.4004 16.4813 15.4092 16.487C15.418 16.4928 15.427 16.4981 15.4364 16.5028C15.4458 16.5075 15.4553 16.5117 15.4651 16.5153C15.475 16.5188 15.485 16.5218 15.4952 16.5242C15.5053 16.5267 15.5155 16.5286 15.5259 16.5297C15.5362 16.531 15.5467 16.5316 15.557 16.5316C15.5675 16.5316 15.5779 16.531 15.5883 16.5297C15.5987 16.5286 15.6089 16.5267 15.619 16.5242C15.6292 16.5218 15.6391 16.5188 15.649 16.5153C15.6588 16.5117 15.6684 16.5075 15.6778 16.5028C15.6871 16.4981 15.6962 16.4928 15.705 16.487C15.7137 16.4813 15.7222 16.475 15.7303 16.4682C15.7383 16.4615 15.746 16.4542 15.7534 16.4465C15.7607 16.4389 15.7674 16.4308 15.7739 16.4223L20.7053 9.19542L20.7217 9.17C20.7834 9.05512 20.8415 8.93823 20.8958 8.81934C20.9501 8.70056 21.0006 8.58008 21.0473 8.45782C21.0941 8.33566 21.1369 8.21202 21.1759 8.08701C21.2148 7.962 21.2497 7.83573 21.2807 7.7084C21.3116 7.58096 21.3386 7.45268 21.3614 7.32345C21.3844 7.19433 21.4032 7.06447 21.4179 6.93408C21.4326 6.80358 21.4431 6.67288 21.4496 6.54165C21.456 6.41052 21.4584 6.27929 21.4565 6.14805C21.4548 6.01671 21.4489 5.88559 21.4387 5.75477C21.4287 5.62386 21.4144 5.49336 21.3962 5.3634C21.3778 5.23343 21.3555 5.10431 21.3291 4.97582C21.3026 4.84733 21.2721 4.71989 21.2377 4.59351C21.2031 4.46702 21.1647 4.34191 21.1224 4.21806C21.0799 4.09421 21.0337 3.97184 20.9837 3.85105C20.9336 3.73037 20.8798 3.61137 20.8222 3.49417C20.7646 3.37697 20.7033 3.26187 20.6386 3.14878C20.5737 3.0357 20.5053 2.92482 20.4335 2.81627C20.3617 2.70782 20.2865 2.6018 20.2079 2.49821C20.1294 2.39472 20.0478 2.29398 19.9629 2.19587C19.8781 2.09786 19.7901 2.00271 19.6993 1.91051C19.6084 1.81831 19.5148 1.72927 19.4182 1.6433C19.3218 1.55742 19.2227 1.47482 19.1211 1.39549C19.0194 1.31616 18.9153 1.24031 18.8088 1.16794C18.7023 1.09558 18.5937 1.0268 18.4829 0.961706C18.372 0.896617 18.2593 0.83522 18.1446 0.777621C18.03 0.720022 17.9136 0.666326 17.7956 0.616533C17.6775 0.566741 17.5579 0.520851 17.437 0.479076C17.3161 0.437196 17.1939 0.399429 17.0707 0.365777C16.9473 0.332019 16.8231 0.302481 16.6978 0.277163C16.5726 0.251739 16.4468 0.230535 16.3203 0.213551C16.1937 0.196566 16.0668 0.183802 15.9395 0.175362C15.8121 0.166817 15.6846 0.162598 15.557 0.162598C15.4295 0.162598 15.302 0.166817 15.1747 0.175362C15.0473 0.183802 14.9204 0.196566 14.7939 0.213551C14.6673 0.230535 14.5415 0.251739 14.4164 0.277163C14.2911 0.302481 14.1668 0.332019 14.0435 0.365777C13.9202 0.399429 13.7981 0.437196 13.6771 0.479076C13.5561 0.520851 13.4367 0.566741 13.3186 0.616533C13.2005 0.666326 13.0841 0.720022 12.9695 0.777621C12.8548 0.83522 12.7421 0.896617 12.6313 0.961706C12.5205 1.0268 12.4119 1.09558 12.3054 1.16794C12.1989 1.24031 12.0948 1.31616 11.9931 1.39549C11.8915 1.47482 11.7924 1.55742 11.6959 1.6433C11.5994 1.72927 11.5058 1.81831 11.4149 1.91051C11.324 2.00271 11.2361 2.09786 11.1513 2.19587C11.0664 2.29398 10.9846 2.39472 10.9062 2.49821C10.8277 2.6018 10.7524 2.70782 10.6807 2.81627C10.6089 2.92482 10.5405 3.0357 10.4756 3.14878C10.4108 3.26187 10.3496 3.37697 10.292 3.49417C10.2344 3.61137 10.1806 3.73037 10.1305 3.85105C10.0804 3.97184 10.0342 4.09421 9.99184 4.21806C9.94941 4.34191 9.91098 4.46702 9.87655 4.59351C9.84201 4.71989 9.81158 4.84733 9.78514 4.97582C9.7587 5.10431 9.73625 5.23343 9.71801 5.3634C9.69967 5.49336 9.68553 5.62386 9.67538 5.75467C9.66534 5.88559 9.65939 6.01671 9.65755 6.14805C9.65581 6.27929 9.65806 6.41052 9.66452 6.54165C9.67097 6.67288 9.68163 6.80358 9.69629 6.93408C9.71104 7.06447 9.7298 7.19433 9.75265 7.32345C9.77561 7.45268 9.80245 7.58096 9.83351 7.7084C9.86445 7.83573 9.8994 7.962 9.93834 8.08701C9.97728 8.21202 10.0201 8.33566 10.0669 8.45782C10.1136 8.58008 10.1641 8.70056 10.2184 8.81934C10.2727 8.93823 10.3307 9.05512 10.3924 9.17L10.4089 9.19542L15.3403 16.4223ZM15.557 3.1491C15.606 3.1491 15.655 3.15026 15.704 3.15279C15.7529 3.15522 15.8018 3.15891 15.8505 3.16387C15.8993 3.16883 15.9479 3.17505 15.9964 3.18244C16.0448 3.18982 16.0931 3.19847 16.1412 3.20828C16.1892 3.21809 16.237 3.22917 16.2845 3.24141C16.3321 3.25364 16.3793 3.26704 16.4262 3.28171C16.4731 3.29637 16.5195 3.31219 16.5657 3.32918C16.6119 3.34616 16.6576 3.36431 16.7029 3.38361C16.7481 3.40292 16.7928 3.42328 16.8371 3.4449C16.8815 3.46642 16.9252 3.4891 16.9684 3.51284C17.0116 3.53668 17.0543 3.56147 17.0963 3.58742C17.1383 3.61337 17.1797 3.64028 17.2204 3.66834C17.2612 3.69629 17.3012 3.7253 17.3406 3.75537C17.3799 3.78543 17.4186 3.81645 17.4564 3.84841C17.4943 3.88038 17.5314 3.9134 17.5677 3.94726C17.604 3.98112 17.6395 4.01583 17.6742 4.05149C17.7088 4.08714 17.7425 4.12364 17.7754 4.16099C17.8084 4.19833 17.8404 4.23652 17.8714 4.27555C17.9025 4.31448 17.9326 4.35425 17.9618 4.39476C17.991 4.43527 18.0192 4.47641 18.0465 4.5184C18.0737 4.56028 18.0999 4.6029 18.1251 4.64615C18.1503 4.6894 18.1745 4.73329 18.1975 4.7777C18.2206 4.82222 18.2426 4.86726 18.2636 4.91284C18.2845 4.95841 18.3044 5.00451 18.3232 5.05103C18.3419 5.09766 18.3595 5.14471 18.376 5.19218C18.3925 5.23965 18.4079 5.28755 18.4221 5.33576C18.4363 5.38397 18.4494 5.4326 18.4613 5.48155C18.4732 5.53039 18.4839 5.57955 18.4935 5.62903C18.5031 5.6785 18.5114 5.72819 18.5186 5.77809C18.5259 5.82799 18.5318 5.87799 18.5366 5.9281C18.5414 5.97831 18.545 6.02863 18.5474 6.07895C18.5498 6.12927 18.5511 6.1797 18.5511 6.23013C18.5511 6.28055 18.5498 6.33098 18.5474 6.3813C18.545 6.43172 18.5414 6.48194 18.5366 6.53215C18.5318 6.58237 18.5259 6.63237 18.5186 6.68227C18.5114 6.73206 18.5031 6.78175 18.4935 6.83122C18.4839 6.8807 18.4732 6.92986 18.4613 6.97881C18.4494 7.02765 18.4363 7.07628 18.4221 7.12449C18.4079 7.17281 18.3925 7.2207 18.376 7.26818C18.3595 7.31565 18.3419 7.36259 18.3232 7.40922C18.3044 7.45585 18.2845 7.50184 18.2636 7.54752C18.2426 7.59309 18.2206 7.63814 18.1975 7.68255C18.1745 7.72707 18.1503 7.77085 18.1251 7.8141C18.0999 7.85735 18.0737 7.89997 18.0465 7.94185C18.0192 7.98384 17.991 8.02509 17.9618 8.0656C17.9326 8.106 17.9025 8.14577 17.8714 8.1848C17.8404 8.22373 17.8084 8.26192 17.7754 8.29926C17.7425 8.33661 17.7088 8.37311 17.6742 8.40876C17.6395 8.44442 17.604 8.47923 17.5677 8.5131C17.5314 8.54696 17.4943 8.57987 17.4564 8.61184C17.4186 8.6438 17.3799 8.67482 17.3406 8.70488C17.3012 8.73495 17.2612 8.76396 17.2204 8.79202C17.1797 8.81998 17.1383 8.84698 17.0963 8.87283C17.0543 8.89878 17.0116 8.92368 16.9684 8.94741C16.9252 8.97115 16.8815 8.99383 16.8371 9.01545C16.7928 9.03697 16.7481 9.05744 16.7029 9.07675C16.6576 9.09595 16.6119 9.11409 16.5657 9.13107C16.5195 9.14806 16.4731 9.16388 16.4262 9.17855C16.3793 9.19321 16.3321 9.20661 16.2845 9.21884C16.237 9.23119 16.1892 9.24216 16.1412 9.25207C16.0931 9.26189 16.0448 9.27054 15.9964 9.27792C15.9479 9.2853 15.8993 9.29142 15.8505 9.29638C15.8018 9.30134 15.7529 9.30503 15.704 9.30756C15.655 9.30999 15.606 9.31126 15.557 9.31126C15.5081 9.31126 15.4591 9.30999 15.4102 9.30756C15.3612 9.30503 15.3124 9.30134 15.2637 9.29638C15.2149 9.29142 15.1662 9.2853 15.1177 9.27792C15.0694 9.27054 15.0211 9.26189 14.973 9.25207C14.925 9.24216 14.8771 9.23119 14.8297 9.21884C14.7821 9.20661 14.7349 9.19321 14.688 9.17855C14.6411 9.16388 14.5946 9.14806 14.5485 9.13107C14.5023 9.11409 14.4566 9.09595 14.4113 9.07675C14.366 9.05744 14.3213 9.03697 14.277 9.01545C14.2327 8.99383 14.189 8.97115 14.1457 8.94741C14.1026 8.92368 14.0599 8.89878 14.0179 8.87283C13.9758 8.84698 13.9345 8.81998 13.8937 8.79202C13.853 8.76396 13.813 8.73495 13.7736 8.70488C13.7343 8.67482 13.6956 8.6438 13.6577 8.61184C13.6199 8.57987 13.5828 8.54696 13.5464 8.5131C13.5101 8.47923 13.4747 8.44442 13.44 8.40876C13.4054 8.37311 13.3716 8.33661 13.3387 8.29926C13.3058 8.26192 13.2738 8.22373 13.2428 8.1848C13.2116 8.14577 13.1815 8.106 13.1523 8.0656C13.1231 8.02509 13.0949 7.98384 13.0677 7.94185C13.0405 7.89997 13.0142 7.85735 12.989 7.8141C12.9639 7.77085 12.9397 7.72707 12.9167 7.68255C12.8935 7.63814 12.8715 7.59309 12.8506 7.54752C12.8296 7.50184 12.8098 7.45585 12.791 7.40922C12.7723 7.36259 12.7547 7.31565 12.7382 7.26818C12.7217 7.2207 12.7063 7.17281 12.692 7.12449C12.6778 7.07628 12.6648 7.02765 12.6528 6.97881C12.6409 6.92986 12.6303 6.8807 12.6206 6.83122C12.6111 6.78175 12.6027 6.73206 12.5955 6.68227C12.5883 6.63237 12.5823 6.58237 12.5776 6.53215C12.5728 6.48194 12.5692 6.43172 12.5667 6.3813C12.5644 6.33098 12.5631 6.28055 12.5631 6.23013C12.5632 6.1797 12.5645 6.12938 12.567 6.07906C12.5695 6.02874 12.5732 5.97842 12.578 5.92831C12.5829 5.8782 12.589 5.8282 12.5962 5.7783C12.6035 5.72851 12.6119 5.67882 12.6215 5.62945C12.6312 5.58008 12.6419 5.53092 12.6539 5.48197C12.6659 5.43313 12.679 5.3846 12.6933 5.33639C12.7075 5.28818 12.723 5.24039 12.7395 5.19292C12.756 5.14545 12.7737 5.0985 12.7925 5.05198C12.8112 5.00535 12.8311 4.95936 12.8521 4.91379C12.8731 4.86832 12.8952 4.82327 12.9182 4.77886C12.9414 4.73445 12.9656 4.69056 12.9908 4.64742C13.016 4.60416 13.0421 4.56165 13.0694 4.51977C13.0966 4.47778 13.1248 4.43664 13.154 4.39613C13.1832 4.35573 13.2134 4.31596 13.2444 4.27703C13.2755 4.2381 13.3074 4.19992 13.3403 4.16257C13.3732 4.12523 13.407 4.08873 13.4417 4.05317C13.4762 4.01752 13.5117 3.98271 13.5481 3.94895C13.5843 3.91508 13.6213 3.88217 13.6592 3.85021C13.6971 3.81814 13.7357 3.78712 13.7749 3.75716C13.8143 3.7271 13.8544 3.69809 13.895 3.67002C13.9357 3.64207 13.977 3.61506 14.019 3.58911C14.0611 3.56316 14.1037 3.53837 14.1468 3.51453C14.19 3.49079 14.2337 3.46801 14.278 3.44649C14.3222 3.42486 14.367 3.40439 14.4122 3.38509C14.4575 3.36578 14.5031 3.34764 14.5492 3.33055C14.5953 3.31356 14.6417 3.29763 14.6885 3.28297C14.7355 3.26831 14.7826 3.2548 14.8301 3.24246C14.8776 3.23022 14.9254 3.21904 14.9733 3.20923C15.0214 3.19932 15.0697 3.19056 15.118 3.18318C15.1665 3.17569 15.2151 3.16946 15.2638 3.1644C15.3125 3.15933 15.3613 3.15564 15.4103 3.153C15.4592 3.15047 15.5081 3.1491 15.557 3.1491Z" fill="black"/>
</g>
<path d="M57.7036 5.43481C57.7408 5.43481 57.7781 5.43069 57.8154 5.42225C58.0046 5.37963 58.1563 5.23237 58.2426 5.00767C58.3225 4.79953 58.3369 4.54582 58.2832 4.29327C58.2295 4.04072 58.1133 3.81633 57.9562 3.66168C57.7866 3.49469 57.589 3.42622 57.3997 3.46895C57.2104 3.51157 57.0587 3.65873 56.9724 3.88353C56.8926 4.09167 56.8781 4.34538 56.9318 4.59793C57.037 5.09185 57.3628 5.43481 57.7036 5.43481Z" fill="white"/>
<mask id="mask1_0_1" style="mask-type:luminance" maskUnits="userSpaceOnUse" x="55" y="4" width="3" height="3">
<path d="M55.769 4.9082H57.1296V6.52857H55.769V4.9082Z" fill="white"/>
</mask>
<g mask="url(#mask1_0_1)">
<path d="M57.1197 5.96754C57.1255 5.77765 57.0664 5.57099 56.9533 5.38564C56.8403 5.20039 56.6851 5.05576 56.5165 4.97865C56.3321 4.89425 56.1522 4.89837 56.0101 4.99025C55.868 5.08203 55.7862 5.24702 55.7799 5.45474C55.7742 5.64462 55.8332 5.85128 55.9462 6.03653C56.0593 6.22188 56.2143 6.36651 56.383 6.44363C56.4711 6.48392 56.5582 6.50407 56.6406 6.50407C56.7307 6.50407 56.8153 6.48002 56.8895 6.43202C57.0316 6.34014 57.1134 6.17525 57.1197 5.96754Z" fill="white"/>
</g>
<path d="M59.2052 5.39926C59.242 5.40749 59.279 5.41171 59.3161 5.41171C59.4701 5.41171 59.6251 5.34103 59.7618 5.20642C59.9189 5.05177 60.035 4.82749 60.0888 4.57494C60.1425 4.32239 60.128 4.06857 60.0482 3.86044C59.9619 3.63574 59.8101 3.48847 59.6209 3.44585C59.2423 3.3603 58.8539 3.72245 58.7374 4.27017C58.6209 4.81778 58.8263 5.31381 59.2052 5.39926Z" fill="white"/>
<path d="M61.0103 4.96717C60.728 4.78466 60.3137 4.95841 60.0671 5.36266C59.8205 5.76691 59.8485 6.22644 60.131 6.40904C60.2052 6.45694 60.2897 6.48099 60.3798 6.48099C60.4622 6.48099 60.5493 6.46084 60.6373 6.42065C60.806 6.34343 60.9611 6.1988 61.0742 6.01355C61.1872 5.8282 61.2462 5.62154 61.2405 5.43176C61.2341 5.22404 61.1525 5.05905 61.0103 4.96717Z" fill="white"/>
<mask id="mask2_0_1" style="mask-type:luminance" maskUnits="userSpaceOnUse" x="56" y="5" width="5" height="4">
<path d="M56.6533 5.62598H60.367V8.60636H56.6533V5.62598Z" fill="white"/>
</mask>
<g mask="url(#mask2_0_1)">
<path d="M60.0359 6.76388L59.1863 5.91593C58.8129 5.54332 58.2073 5.54332 57.8339 5.91593L56.9841 6.76388L56.9822 6.76588C56.6026 7.1445 56.5428 7.74823 56.8635 8.17769C57.141 8.54924 57.5921 8.68459 57.9961 8.58363V8.58373C57.9962 8.58363 57.9964 8.58352 57.9964 8.58352C58.0726 8.56453 58.1468 8.53668 58.2181 8.50082C58.4097 8.4506 58.6105 8.4506 58.802 8.50082C58.8733 8.53668 58.9476 8.56453 59.0239 8.58352C59.0239 8.58363 59.024 8.58363 59.0241 8.58363C59.428 8.68459 59.8791 8.54924 60.1567 8.17769C60.4772 7.74834 60.4176 7.1446 60.0381 6.76599L60.0359 6.76388Z" fill="white"/>
</g>
<path d="M3.76123 0.619141V13.4956H11.0229V16.5203H0.718018V0.619141H3.76123Z" fill="black"/>
</svg>
